/* XPM */
static char *_0fb04c1193b4370e3b2d8e6e7353814i78TmMdbzsN8Z6uO[] = {
/* columns rows colors chars-per-pixel */
"32 32 234 2 ",
"   c #0D0E06",
".  c #0D0E09",
"X  c #120E0A",
"o  c #0E1007",
"O  c #0D120C",
"+  c #141407",
"@  c #13130C",
"#  c #070A14",
"$  c #090C13",
"%  c #090C1B",
"&  c #0E1112",
"*  c #0F1319",
"=  c #141311",
"-  c #18171C",
";  c #0E1525",
":  c #0D152C",
">  c #171629",
",  c #141A2C",
"<  c #141B33",
"1  c #181838",
"2  c #1F262E",
"3  c #1F2934",
"4  c #21242D",
"5  c #232A33",
"6  c #252939",
"7  c #242D3B",
"8  c #2A313D",
"9  c #171B45",
"0  c #0D165F",
"q  c #1B2043",
"w  c #1D264C",
"e  c #1D2751",
"r  c #262E42",
"t  c #222B4C",
"y  c #343B47",
"u  c #242D52",
"i  c #222558",
"p  c #222B5B",
"a  c #253253",
"s  c #2B3854",
"d  c #29325A",
"f  c #0B1A64",
"g  c #141B65",
"h  c #191C66",
"j  c #10166A",
"k  c #131C6B",
"l  c #1B1E6C",
"z  c #141D74",
"x  c #1A1D73",
"c  c #211F6F",
"v  c #231F75",
"b  c #0B256E",
"n  c #12246A",
"m  c #14226C",
"M  c #1A236D",
"N  c #1B2B6D",
"B  c #162771",
"V  c #1D2473",
"C  c #1D2A74",
"Z  c #1C2379",
"A  c #1E2A7A",
"S  c #1C3176",
"D  c #222C6B",
"F  c #2A3368",
"G  c #222473",
"H  c #222B75",
"J  c #24247A",
"K  c #2A247E",
"L  c #242B7B",
"P  c #292C7B",
"I  c #223276",
"U  c #2B3877",
"Y  c #25337B",
"T  c #2B337C",
"R  c #303D73",
"E  c #3A454C",
"W  c #3C4561",
"Q  c #3E4864",
"!  c #3B4978",
"~  c #4D555A",
"^  c #404A65",
"/  c #424B6A",
"(  c #4A5468",
")  c #4C596F",
"_  c #515961",
"`  c #4B5778",
"'  c #53577A",
"]  c #262A81",
"[  c #2B2C81",
"{  c #2B3482",
"}  c #2B3A87",
"|  c #343989",
" . c #323C8B",
".. c #363D92",
"X. c #2A4788",
"o. c #394A87",
"O. c #34448B",
"+. c #354B8D",
"@. c #3B4B8B",
"#. c #33528D",
"$. c #3D528D",
"%. c #2D4893",
"&. c #364492",
"*. c #3C4695",
"=. c #344D93",
"-. c #3D4C94",
";. c #3A4399",
":. c #374999",
">. c #3D4B9A",
",. c #2F5090",
"<. c #365194",
"1. c #3C5294",
"2. c #3D539B",
"3. c #375898",
"4. c #394EA3",
"5. c #3E56A3",
"6. c #454D85",
"7. c #414E8C",
"8. c #4C5D86",
"9. c #475788",
"0. c #515F8F",
"q. c #424C94",
"w. c #444D9B",
"e. c #4B4F98",
"r. c #425493",
"t. c #43539D",
"y. c #435B9B",
"u. c #4A5898",
"i. c #4B5B9B",
"p. c #505C9E",
"a. c #566289",
"s. c #55688F",
"d. c #496197",
"f. c #4D619B",
"g. c #52649C",
"h. c #56679C",
"j. c #5B6C9C",
"k. c #57729D",
"l. c #63749A",
"z. c #494FA2",
"x. c #4453A1",
"c. c #4B55A4",
"v. c #445AA1",
"b. c #4A5BA2",
"n. c #4B5CA9",
"m. c #5157AC",
"M. c #4C63A3",
"N. c #4B64AA",
"B. c #496CA8",
"V. c #5264A3",
"C. c #536AA3",
"Z. c #5A6BA3",
"A. c #5565AA",
"S. c #546CAC",
"D. c #5B6CAD",
"F. c #5873A7",
"G. c #5B76B3",
"H. c #606EA7",
"J. c #6478A8",
"K. c #657BB6",
"L. c #697BBB",
"P. c #6C7BC0",
"I. c #6280AF",
"U. c #6987B9",
"Y. c #7187BE",
"T. c #7687C6",
"R. c #7489CB",
"E. c #7C91C3",
"W. c #7593C9",
"Q. c #7894C9",
"!. c #7C95CB",
"~. c #7C9BD5",
"^. c #7BA6D6",
"/. c #8B9CB8",
"(. c #929FBE",
"). c #91A4BB",
"_. c #818FC1",
"`. c #8395C1",
"'. c #8698C8",
"]. c #8C9DCC",
"[. c #929DCC",
"{. c #849CD2",
"}. c #879BD9",
"|. c #89A3C8",
" X c #96A8C6",
".X c #9CB1C6",
"XX c #83A2D3",
"oX c #8DA3D4",
"OX c #8FAED3",
"+X c #85A3DB",
"@X c #8DA3D9",
"#X c #86ABDC",
"$X c #8BAADD",
"%X c #92A3DC",
"&X c #96A9DC",
"*X c #96B2DF",
"=X c #9DB3D8",
"-X c #A6B6D8",
";X c #B1BFDC",
":X c #86AAE5",
">X c #8CACE5",
",X c #8CA6EA",
"<X c #93AAE3",
"1X c #98ACE7",
"2X c #87B4E8",
"3X c #8DB3EB",
"4X c #95B3E4",
"5X c #9BB5E5",
"6X c #9DBBE5",
"7X c #95B3EB",
"8X c #9BB4EB",
"9X c #9CB9ED",
"0X c #8FAFF0",
"qX c #8FBCF0",
"wX c #97B7F2",
"eX c #A5BDE2",
"rX c #AABBE5",
"tX c #A2B4EA",
"yX c #A7BAED",
"uX c #A9BFEA",
"iX c #A4BCF3",
"pX c #A6B8F8",
"aX c #A9C1DE",
"sX c #ADC2E1",
"dX c #A4C4EE",
"fX c #ADC2E9",
"gX c #B2C7E5",
"hX c #BCCDE3",
"jX c #B4C8EA",
"kX c #BBD1E9",
"lX c #AEC7F9",
"zX c #B2C6F1",
"xX c #B4D0F6",
"cX c #C3D5E8",
/* pixels */
"@ @ . . . . .     o o o   o o       .   @ o o           X @ X @ ",
"- 4 > 6 r ( _ ~ _ E 7 r 7 E _ _ _ ~ 8 6 r 8 ~ ~ ~ ~ y 8 5 > - . ",
"% 6 t ` 8.-XhXhXcX).j.j.d.J.eXeXaX.X0.j.h.l.;XhXhXhXs.8.F t 1 $ ",
"; s d 0.j.K.'.`.`.H.1.2.=.S.>X+X#XXX+.5.>.q.E._.`.E.F.F.! ! w $ ",
"> ' !  XjXH.q.T M j j } &.L.9X:X2X^.=.4.z z V l @.$.*XdXh.9.a $ ",
"> a.H.Y.@XA.m...J ] { -.S.G.#X^.^.W.C.D.{ | x L t.@.XXXXk.l.s $ ",
"5  XzXh.r.[ x Z Z ;.c.L.lXR.X.,.X.C.tX%Xe.z.P G V m 1.#.'.hX) $ ",
"2 ).jXh.e.{ ] ] A ;.2.G.iX!.+.n.t.D.zX%Xw.c.J G G H w.O.].hX( $ ",
"5 .XkXo.h v J V l  .O.K.lXT.k L M 7.uX@X@.-.V l c c G h [.cX( # ",
"3 /.eX@.h [ K L M r.C.G.4XL.M H M q.1X!.Z.A.Y P P T G h '.-X/ % ",
"; ! f.Y g w.m.c.@.Q.xX!.1.+.n H V L *.g.uX8Xb.2.w.c.P g 7.j.d % ",
", 8.V.T M t.N.y.1.U.4XY.1.+.Y Y L { *.p.oX{.y.y.3.A.I C @.h.d % ",
"; ` @.-.-.{.9X>XdXU.1. .0 I i.b.t.q.l T r.d.5X6X*XiXf.1.r.0.a % ",
", a.M.M.y.W.>X~.OXI.=.;.V O.A.v.N.b.V { t.i.oX|.{.@XM.r.$.k.a $ ",
"7  X8X>X7XB.3.X.N C A ;.>.D.tX,X9XXX>.c.J g D N 1.@.oX7X$XaX` # ",
"7  X9X:XqXB.<.%.B V Z ..>.S.0X,X3X~.2.x.G G H C n.2.>X3X$XfX` # ",
"5 |.9X2XqXB.%.} n M z ;.>.G.wX,XwX+Xv.x.V V M H c.O.>X3X$XfX' # ",
"7 |.4X:X#XG.v.O.R D M >.x.K.8X,X8X{.t.>.L M U U r.y.+X>X}.5X` % ",
"< d.y.3.#.!.8X<XeXU.>.:.m } A.t.x.t.k { >.t.&X=X&X8XM.3.2.V.p % ",
": o.v.v.=.!.4X+X6XU.y.&.m  .c.c.c.*.C C -.c.<X8X4X7XN.5.v.V.F % ",
": 6.M.Y f X.<.=.+.U.iXR.t.&.m L L { -.i.tX}.t.1.1.v.S b +.i.p % ",
"; 9.g.I m 1.v.n.2.R.iXR.r.*.m V k L i.Z.tX1Xx.v.t.t.A m $.g.d % ",
"5 (.gX7.n Y L Z j O.-.L.zXT.V M g @.rXoXr.b.C V L L L M '.gX) $ ",
"4 (.zX9.V l V ] x ..w.P.pXT.m I B 7.yX@Xr.w.J J J J P l _.gX) $ ",
"2 (.zXV.w.[ V ] J ..>.K.pX}.<.v.-.M.9X+Xy.w.[ K J J w.q.'.sX) $ ",
"5 ).sXg.t.Y x V V *.-.L.iXQ.+.<.+.C.5X$XM.w.K J J k w.*.].sX) $ ",
", a.0.T.1XA.t. .A I S +.y.G.<X+X$X!.d.f.S Y x P q.-.@X@Xg.j.a $ ",
"< 6.@.}.yXD.&.T H N f X.+.S.7X:X3X~.#.,.n m D D @.o.*XdXS.i.a $ ",
", F G x.n.!.%X}.%XY.=.2.=.G.0X0XwXXX3.3.<.i.oX].{.+XS.N.T U w % ",
"< i H t.t.].jXyXjX`.r.b.-.K.uX5XfX=Xf.C.V.Z.rXfXfXuXh.i.U p q * ",
"> 9 9 e e s Q / ^ s w e w t W ^ ( Q t a t t W W / / u u 9 1 , = ",
"@ - * & O @ @ @ @ @ @ = = @ + + + + @ @ @ @ @ @ = - = & $ & @ + "
};
