/* XPM */
static char *_ab406c71ff446f2a9845457cd00de0aAPrPziG646PA0fv6[] = {
/* columns rows colors chars-per-pixel */
"32 32 64 1 ",
"  c #477147",
". c #192939",
"X c #1B2C3B",
"o c #1D2F3D",
"O c #477147",
"+ c #2A383A",
"@ c #6D6525",
"# c #222E43",
"$ c #242D46",
"% c #312D4D",
"& c #2E2952",
"* c #372855",
"= c #342659",
"- c #36255C",
"; c #3B2161",
": c #40255D",
"> c #471D70",
", c #481C72",
"< c #4B1C75",
"1 c #5C1B75",
"2 c #531D7E",
"3 c #591C7C",
"4 c #601D7A",
"5 c #661A7F",
"6 c #422169",
"7 c #44206C",
"8 c #53206E",
"9 c #673367",
"0 c #5F1A8B",
"q c #660E8B",
"w c #6B1A84",
"e c #680796",
"r c #6E0795",
"t c #670A96",
"y c #680B95",
"u c #690898",
"i c #6B089C",
"p c #6E089E",
"a c #770699",
"s c #79069A",
"d c #7B1393",
"f c #74119B",
"g c #7513A4",
"h c #7D1EAA",
"j c #9205A7",
"k c #9705A9",
"l c #990DAF",
"z c #8F10A6",
"x c #841DA6",
"c c #9B09B0",
"v c #9E08B3",
"b c #9D0EB3",
"n c #8019B2",
"m c #A309B9",
"M c #A709BC",
"N c #8125AD",
"B c #9934A4",
"V c #8727B6",
"C c #8D27BE",
"Z c #8E28BF",
"A c #912BC2",
"S c #912CC1",
"D c #9D37CE",
"F c #AC4BDA",
/* pixels */
"OOOOOOOOOOOOOOOOOOOOOOOOOOOOOOOO",
"OOOOOOOOOOOOOOOOOOOOOOOOOOOOOOOO",
"OOOOOOOOOOOOOOOOOOOOOOOOOOOOOOOO",
"OOOOOOOOOOOOOOOOOOOOOOOOOOOOOOOO",
"OOOOOOOOOOOOOOOOOOOOOOOOOOOOOOOO",
"OOOOOOOOOOOOOOOOOOOOOOOOOOOOOOOO",
"OOOOOOOOOOOOOOOOOOOOOOOOOOOOOOOO",
"OOOOOOOOOOOOOOOOOOOOOOOOOOOOOOOO",
"OOOOOOOOOOOOOO;$$;OOOOOOOOOOOOOO",
"OOOOOOOO$&=#O#0nn0#O#=&$OOOOOOOO",
"OOOOOOO:qtu,O6CAAC6O,utq:OOOOOOO",
"OOOOO#wbvae<O2NVVN2O<eavbw#OOOOO",
"OOOOO#84lmap-7ZBBZ7-paml48#OOOOO",
"OOOOOOO#zMksi>gxxg>iskMz#OOOOOOO",
"OOOOOOOO1dckryZSSZyrkcd1OOOOOOOO",
"OOOOOOOOOO*5jfDFFDfj5*OOOOOOOOOO",
"OOOOOOOOOOOO*3ADDA3*OOOOOOOOOOOO",
"OOOOOOOOOOOOO#hSSh#OOOOOOOOOOOOO",
"OOOOOOOOOOOOOO%99%OOOOOOOOOOOOOO",
"OOOOOOOOOOOOOO+@@+OOOOOOOOOOOOOO",
"OOOOOOOOOOOOOOOOOOOOOOOOOOOOOOOO",
"OOOOOOOOOOOOOOOOOOOOOOOOOOOOOOOO",
"OOOOOOOOOOOOOOOOOOOOOOOOOOOOOOOO",
"OOOOOOOOOOOOOOOOOOOOOOOOOOOOOOOO",
"OOOOOOOOOOOOOooOOOOOOOOOOOOOOOOO",
"OOOOOOOOOOOOOOooOOOOOOOOOOOOOOOO",
"OOOOOOOOOOOOOo....XOOOOOOOOOOOOO",
"OOOOOOOOOo.          .oOOOOOOOOO",
"OOOOOOOOOX            .oOOOOOOOO",
"OOOOOOOOOo.          .ooOOOOOOOO",
"OOOOOOOOOOOOOoXXXXXOOOOoOOOOOOOO",
"OOOOOOOOOOOOOOOOOOOOOOOoOOOOOOOO"
};
