/* XPM */
static char *_f7f26d221d240accb5c2ba3d7ff0de4gTJPRYT19XAuD1F3[] = {
/* columns rows colors chars-per-pixel */
"32 32 68 1 ",
"  c #477147",
". c #192939",
"X c #1B2C3B",
"o c #1C2D3C",
"O c #477147",
"+ c #24343C",
"@ c #29363B",
"# c #434932",
"$ c #605825",
"% c #212F40",
"& c #262E45",
"* c #292A4B",
"= c #2E2A4B",
"- c #292D48",
"; c #292B4C",
": c #2C2A4F",
"> c #2F2953",
", c #352659",
"< c #38255F",
"1 c #3F2362",
"2 c #461B6F",
"3 c #4B1C75",
"4 c #4C1F75",
"5 c #561F71",
"6 c #531D7E",
"7 c #601C7A",
"8 c #641C7E",
"9 c #4B2067",
"0 c #422469",
"q c #5B1488",
"w c #5F138D",
"e c #6E1987",
"r c #75158D",
"t c #650791",
"y c #6A0795",
"u c #630E92",
"i c #6E0997",
"p c #6D0F99",
"a c #6C089C",
"s c #750698",
"d c #7A0699",
"f c #7A1592",
"g c #70109E",
"h c #5F2088",
"j c #7008A1",
"k c #7E10A1",
"l c #7B13AC",
"z c #7E1CAF",
"x c #7D24A7",
"c c #8707A4",
"v c #8F05A4",
"b c #8B0CA1",
"n c #9606AB",
"m c #A007B4",
"M c #A309B8",
"N c #A508B9",
"B c #AA09BE",
"V c #8123AF",
"C c #9733A2",
"Z c #8626B4",
"A c #8821B9",
"S c #8E28BF",
"D c #AB0AC0",
"F c #912BC2",
"G c #9832C8",
"H c #9A34CB",
"J c #A444D3",
"K c #A844D7",
/* pixels */
"OOOOOOOOOOOOOOOOOOOOOOOOOOOOOOOO",
"OOOOOOOOOOOOOOOOOOOOOOOOOOOOOOOO",
"OOOOOOOOOOOOOOOOOOOOOOOOOOOOOOOO",
"OOOOOOOOOOOOOOOOOOOOOOOOOOOOOOOO",
"OOOOOOOOOOOOOOOOOOOOOOOOOOOOOOOO",
"OOOOOOOOOOOOOOOOOOOOOOOOOOOOOOOO",
"OOOOOOOOOOOOOOOOOOOOOOOOOOOOOOOO",
"OOOOOOOOOOOOOOOOOOOOOOOOOOOOOOOO",
"OOOOOOOOOOOOOOOOOOOOOOOOOOOOOOOO",
"OOOOOOOOOOOOOO2002OOOOOOOOOOOOOO",
"OOOOOOOOOOOOO*zSSz*OOOOOOOOOOOOO",
"OOOOOOOO>3q;O4ZFFZ4O;q3>OOOOOOOO",
"OOOOOOO9itj:O6ZxxZ6O:jti9OOOOOOO",
"OOOOO%8DMcyu<,ACCA,<uycMD8%OOOOO",
"OOOOO%75fBvsawgllgwasvBf57%OOOOO",
"OOOOOOOOeNmndpGJJGpdnmNeOOOOOOOO",
"OOOOOOOO=&9rbkHKKHkbr9&=OOOOOOOO",
"OOOOOOOOOOO%-1SHHS1-%OOOOOOOOOOO",
"OOOOOOOOOOOOOOhVVhOOOOOOOOOOOOOO",
"OOOOOOOOOOOOOO@$$@OOOOOOOOOOOOOO",
"OOOOOOOOOOOOOO+##+OOOOOOOOOOOOOO",
"OOOOOOOOOOOOOOOOOOOOOOOOOOOOOOOO",
"OOOOOOOOOOOOOOOOOOOOOOOOOOOOOOOO",
"OOOOOOOOOOOOOOOOOOOOOOOOOOOOOOOO",
"OOOOOOOOOOOOOOoOOOOOOOOOOOOOOOOO",
"OOOOOOOOOOOOOOoOOOOOOOOOOOOOOOOO",
"OOOOOOOOOOOOOo....XOOOOOOOOOOOOO",
"OOOOOOOOOo.          ..OOOOOOOOO",
"OOOOOOOOO.             OOOOOOOOO",
"OOOOOOOOOo.          ..oOOOOOOOO",
"OOOOOOOOOOOOOoXXXXXOOOOoOOOOOOOO",
"OOOOOOOOOOOOOOOOOOOOOOOOOOOOOOOO"
};
