/* XPM */
static char *_aab3d9f6e4840d4f59b040625a21ae6ZV0gVz8wKD05qzjF[] = {
/* columns rows colors chars-per-pixel */
"32 32 69 1 ",
"  c #162535",
". c #182837",
"X c #192A39",
"o c #1B2C3B",
"O c #1D2E3D",
"+ c #1E303E",
"@ c #2A383A",
"# c #676024",
"$ c #202F40",
"% c #252D47",
"& c #282A4A",
"* c #2B294E",
"= c #2D2B4C",
"- c #312B4F",
"; c #203041",
": c #332754",
"> c #36255B",
", c #3D275A",
"< c #39265C",
"1 c #3D2364",
"2 c #42255F",
"3 c #501E6E",
"4 c #4B1975",
"5 c #4B1F74",
"6 c #581E72",
"7 c #5B1D75",
"8 c #50197A",
"9 c #531D7E",
"0 c #452462",
"q c #5A1387",
"w c #541881",
"e c #5D138B",
"r c #6B1884",
"t c #6E1987",
"y c #670794",
"u c #6D0695",
"i c #630D91",
"p c #6D0799",
"a c #6B0C9C",
"s c #7A069A",
"d c #7A069C",
"f c #7F069D",
"g c #6D1997",
"h c #70119A",
"j c #7013A1",
"k c #7F1AB0",
"l c #7D23A8",
"z c #9205A7",
"x c #9506AA",
"c c #990AAF",
"v c #8010A2",
"b c #9E07B2",
"n c #9F0DB5",
"m c #821FB1",
"M c #861FB7",
"N c #A207B6",
"B c #A70BBC",
"V c #A909BE",
"C c #8D2DA5",
"Z c #912CA3",
"A c #8423B3",
"S c #8822BA",
"D c #8B28BB",
"F c #902BC1",
"G c #952FC6",
"H c #9530C6",
"J c #9D37CE",
"K c #A23AD3",
"L c #AD4EDB",
/* pixels */
"++++++++++++++++++++++++++++++++",
"++++++++++++++++++++++++++++++++",
"++++++++++++++++++++++++++++++++",
"++++++++++++++++++++++++++++++++",
"++++++++++++++++++++++++++++++++",
"++++++++++++++++++++++++++++++++",
"++++++++++++++++++++++++++++++++",
"++++++++++++++++++++++++++++++++",
"++++++++++++++++++++++++++++++++",
"++++++++++++++*;;*++++++++++++++",
"++++++++++++++4jj4++++++++++++++",
"+++++++++++++>SFFS>+++++++++++++",
"+++++++++++++9lFFl9+++++++++++++",
"++++++++&e1++5DCCD5++1e&++++++++",
"+++++++:ayw%+&kZZk&+%wya:+++++++",
"++++++,cfdpiq8mMMm8qipdfc,++++++",
"+++++$tBnVzsuhJLLJhuszVnBt$+++++",
"++++++2-6VNbxvGKKGvxbNV6-2++++++",
"++++++++=706r3AHHA3r607=++++++++",
"++++++++++++++<gg<++++++++++++++",
"++++++++++++++@##@++++++++++++++",
"++++++++++++++++++++++++++++++++",
"++++++++++++++++++++++++++++++++",
"++++++++++++++++++++++++++++++++",
"++++++++++++++++++++++++++++++++",
"++++++++++++++++++++++++++++++++",
"++++++++++++XXXXXXX+++++++++++++",
"+++++++OX.            Xo++++++++",
"+++++++X                O+++++++",
"+++++++OX.            Xo++++++++",
"++++++++++++ooooooo+++++++++++++",
"++++++++++++++++++++++++++++++++"
};
