/* XPM */
static char *_201e635f6fd4d31b533c8e186fd8f702nBfVM88RchltOD4[] = {
/* columns rows colors chars-per-pixel */
"32 32 81 1 ",
"  c #477147",
". c #182838",
"X c #1B2C3A",
"o c #6EB35E",
"O c #477147",
"+ c #55552B",
"@ c #212F41",
"# c #242D45",
"$ c #262C48",
"% c #282C4A",
"& c #2B2A4E",
"* c #283141",
"= c #2E2952",
"- c #302950",
"; c #302954",
": c #36265C",
"> c #38225E",
", c #392460",
"< c #3E2265",
"1 c #5E3554",
"2 c #491D73",
"3 c #4B1D76",
"4 c #561F71",
"5 c #5D1D77",
"6 c #54167F",
"7 c #531D7E",
"8 c #432560",
"9 c #482364",
"0 c #43206B",
"q c #4E226A",
"w c #52206D",
"e c #681881",
"r c #60168E",
"t c #6E1988",
"y c #77148F",
"u c #670792",
"i c #680797",
"p c #6C0794",
"a c #620E90",
"s c #670A95",
"d c #6B089A",
"f c #690C99",
"g c #6D089D",
"h c #720797",
"j c #740698",
"k c #631193",
"l c #651092",
"z c #7B1292",
"x c #73119B",
"c c #75119C",
"v c #76219F",
"b c #7308A7",
"n c #7410A4",
"m c #7520A2",
"M c #81069E",
"N c #880E9F",
"B c #84109B",
"V c #96339A",
"C c #8406A1",
"Z c #8905A1",
"A c #8E06A6",
"S c #860DA5",
"D c #890DA8",
"F c #9505AA",
"G c #9A06AE",
"H c #851EB6",
"J c #A307B7",
"K c #A108B7",
"L c #A609BB",
"P c #A30CB9",
"I c #AA09BE",
"U c #8321B3",
"Y c #8326B1",
"T c #8C27BD",
"R c #8E28BF",
"E c #AB0AC0",
"W c #912BC2",
"Q c #9834C8",
"! c #9B36CC",
"~ c #A03AD1",
"^ c #AB4BDA",
/* pixels */
"oooooooooooooooooooooooooooooooo",
"oooooooooooooooooooooooooooooooo",
"oooooooooooooooooooooooooooooooo",
"oooooooooooooooooooooooooooooooo",
"oooooooooooooooooooooooooooooooo",
"oooooooooooooooooooooooooooooooo",
"oooooooooooooooooooooooooooooooo",
"oooooooooooooooooooooooooooooooo",
"oooooooooooooooooooooooooooooooo",
"oooooooooooooo>==>oooooooooooooo",
"oooooooooooooorUUroooooooooooooo",
"ooooooooooooo0RWWR0ooooooooooooo",
"ooooooooo%3oo7vYYv7oo,;ooooooooo",
"ooooooo@2ag:o0TVVT0oobs6$ooooooo",
"ooooooo5Ahuf<$nHHn@&kipCN@oooooo",
"ooooooqPILAjilRQQRrdpMKIEt@ooooo",
"ooooooq9@IJGZc!^^!xMFJIw84@ooooo",
"oooooooooeeyJDW~~WSJBez#oooooooo",
"ooooooooooooo#mRRm-ooooooooooooo",
"oooooooooooooo*11*oooooooooooooo",
"ooooooooooooooO++Ooooooooooooooo",
"oooooooooooooooooooooooooooooooo",
"oooooooooooooooooooooooooooooooo",
"oooooooooooooooooooooooooooooooo",
"oooooooooooooooooooooooooooooooo",
"oooooooooooooooooooooooooooooooo",
"oooooooooooooX....Xooooooooooooo",
"oooooooooX.          ..ooooooooo",
"ooooooooo              ooooooooo",
"oooooooooX.          .Xooooooooo",
"oooooooooooooXXXXXXooooooooooooo",
"oooooooooooooooooooooooooooooooo"
};
